<svg xmlns="http://www.w3.org/2000/svg" viewBox="0 0 400 406.742" xml:space="preserve" width="36" height="36">
   <g fill-rule="evenodd">
      <path fill="#c084fc" d="M93.992 29.371C80.275 31.486 63.739 43.237 56.801 55.8c-.729 1.32-1.544 2.67-1.812 3-.267.33-.807 1.59-1.199 2.8-.392 1.21-.939 2.56-1.215 3-2.12 3.38-3.59 15.463-3.115 25.6.382 8.15 5.174 25.163 10.141 36 4.694 10.243 9.332 26.907 11.635 41.8 2.451 15.86 2.057 40.324-.895 55.6-2.235 11.56-6.994 26.712-12.94 41.2-3.309 8.063-4.671 11.737-5.264 14.2a195.313 195.313 0 0 1-1.546 5.843c-4.204 14.932-1.443 36.039 6.167 47.157a845.565 845.565 0 0 1 3.418 5.035c12.154 18.117 41.311 25.473 64.424 16.252 7.614-3.037 15.05-7.052 30.2-16.307 9.247-5.649 19.511-10.638 29.8-14.485 28.877-10.795 55.543-9.857 88 3.099 22.757 9.083 47.456 4.424 61.138-11.534 1.708-1.992 2.863-3.642 6.482-9.26 5.264-8.171 7.293-23.85 4.449-34.392-2.546-9.444-6.843-17.864-16.617-32.57-18.388-27.665-17.045-63.693 3.536-94.859 12.755-19.314 14.434-41.27 4.514-59.037-11.023-19.745-37.543-29.311-60.902-21.969-1.43.449-2.87.82-3.2.824-.33.004-1.14.291-1.8.637-.66.346-2.91 1.225-5 1.953s-5.06 1.799-6.6 2.379c-1.54.58-4.6 1.489-6.8 2.02-2.2.53-5.44 1.315-7.2 1.744-19.187 4.672-40.077 1.927-66-8.67-5.753-2.352-11.947-5.747-23.829-13.06-1.744-1.073-5.763-3.476-15.771-9.429-16.149-9.605-30.814-13.189-45.008-11"/>
   </g>
</svg>